<!DOCTYPE svg PUBLIC "-//W3C//DTD SVG 1.1//EN" "http://www.w3.org/Graphics/SVG/1.1/DTD/svg11.dtd">
<!-- Uploaded to: SVG Repo, www.svgrepo.com, Transformed by: SVG Repo Mixer Tools -->
<svg width="800px" height="800px" viewBox="0 0 64 64" xmlns="http://www.w3.org/2000/svg" fill="#000000">
<g id="SVGRepo_bgCarrier" stroke-width="0"/>
<g id="SVGRepo_tracerCarrier" stroke-linecap="round" stroke-linejoin="round"/>
<g id="SVGRepo_iconCarrier"> <g id="Flat"> <g id="Color"> <polygon fill="#ffffff" points="45 17 32 25 19 17 19 3 45 3 45 17"/> <polygon fill="#dd051d" points="40 3 40 20.08 32 25 24 20.08 24 3 40 3"/> <path d="M32,25l6.49-4a21.36,21.36,0,0,0-13,0Z" fill="#a60416"/> <circle cx="32" cy="41.5" fill="#d3d2cf" r="19.5"/> <circle cx="32" cy="41.5" fill="#8f8f8f" r="14.5"/> <path d="M33.88,33.57a6.49,6.49,0,0,0-5.81,1.23,6.41,6.41,0,0,0-2.21,4.89H30c0-2.24,3.37-2.38,4-1,1,2.1-8,7-8,7v4H38v-4H34a7.07,7.07,0,0,0,4-7.54A6.16,6.16,0,0,0,33.88,33.57Z" fill="#d3d2cf"/> </g> </g> </g>
</svg>